<svg width="278" height="89" viewBox="0 0 278 89" fill="none" xmlns="http://www.w3.org/2000/svg">
<g clip-path="url(#clip0_1_2749)">
<path d="M263.502 4.78158C263.502 2.1494 265.635 0.0134023 268.266 0.0134023H271.444C272.708 0.0134023 273.92 0.515762 274.814 1.40997C275.708 2.30417 276.21 3.51698 276.21 4.78158C276.21 6.04618 275.708 7.25898 274.814 8.15319C273.92 9.04739 272.708 9.54975 271.444 9.54975H268.266C267.64 9.54975 267.02 9.4264 266.442 9.18675C265.864 8.9471 265.339 8.59585 264.896 8.15305C264.454 7.71026 264.103 7.1846 263.864 6.60611C263.625 6.02762 263.502 5.40764 263.502 4.78158ZM130.082 31.7953C130.082 49.3461 115.862 63.575 98.3165 63.575C80.7735 63.575 66.5511 49.3461 66.5511 31.7953C66.5511 14.2401 80.7735 0.0156273 98.3165 0.0156273C115.862 0.0156273 130.082 14.2401 130.082 31.7953ZM60.355 31.6373C62.112 31.6373 63.5487 33.0613 63.373 34.8102C62.7725 40.795 60.4867 46.4865 56.7812 51.2232C53.0757 55.9599 48.1027 59.5472 42.44 61.5683C36.7774 63.5894 30.6577 63.9613 24.7921 62.6407C18.9266 61.3201 13.5561 58.3612 9.30485 54.1081C5.05357 49.8549 2.09606 44.482 0.776052 38.6138C-0.54396 32.7456 -0.17227 26.6232 1.84792 20.958C3.86811 15.2928 7.45385 10.3175 12.1884 6.61032C16.923 2.90314 22.6119 0.616321 28.5941 0.0156273C30.3399 -0.162373 31.7655 1.27943 31.7655 3.03273V28.4578C31.7655 30.2155 33.1888 31.6373 34.9436 31.6373H60.355ZM174.555 69.9318C177.083 69.9318 179.507 70.9363 181.294 72.7243C183.081 74.5123 184.085 76.9373 184.085 79.4659C184.085 81.9945 183.081 84.4196 181.294 86.2076C179.507 87.9956 177.083 89.0001 174.555 89.0001H158.674C156.146 89.0001 153.722 87.9956 151.935 86.2076C150.148 84.4196 149.144 81.9945 149.144 79.4659C149.144 76.9373 150.148 74.5123 151.935 72.7243C153.722 70.9363 156.146 69.9318 158.674 69.9318H174.555ZM165.025 63.575C182.57 63.575 196.793 49.3461 196.793 31.7953C196.801 26.404 195.431 21.1002 192.814 16.3872L198.063 11.1362C198.667 10.531 199.147 9.81271 199.474 9.02219C199.801 8.23166 199.969 7.38443 199.969 6.52885C199.969 5.67328 199.8 4.82613 199.473 4.03576C199.145 3.24539 198.665 2.52729 198.061 1.92245C197.456 1.31762 196.738 0.837892 195.948 0.510669C195.157 0.183446 194.311 0.0151331 193.455 0.0153398C192.6 0.0155464 191.753 0.184269 190.963 0.511873C190.173 0.839478 189.456 1.31955 188.851 1.92468L184.27 6.50818C178.742 2.28492 171.978 0.00220651 165.023 0.0134023C147.482 0.0156273 133.262 14.2401 133.262 31.7953C133.262 49.3461 147.482 63.575 165.025 63.575ZM263.502 31.7953C263.502 49.3461 249.279 63.575 231.734 63.575C214.191 63.575 199.969 49.3461 199.969 31.7953C199.969 14.2401 214.191 0.0156273 231.734 0.0156273C249.279 0.0156273 263.502 14.2423 263.502 31.7953Z" fill="url(#paint0_linear_1_2749)"/>
</g>
<defs>
<linearGradient id="paint0_linear_1_2749" x1="0.000976563" y1="0.000732422" x2="282.728" y2="56.2204" gradientUnits="userSpaceOnUse">
<stop stop-color="#6142F6"/>
<stop offset="0.66289" stop-color="#9C2BDC"/>
<stop offset="1" stop-color="#FF2468"/>
</linearGradient>
<clipPath id="clip0_1_2749">
<rect width="278" height="89" fill="white"/>
</clipPath>
</defs>
</svg>
