<svg width="60" height="60" viewBox="0 0 60 60" fill="none" xmlns="http://www.w3.org/2000/svg">
<path d="M25.6225 4.11497C26.5941 3.97058 27.5836 4.21318 28.3782 4.7906C29.1728 5.36803 29.7091 6.23419 29.8719 7.20287C30.0346 8.17156 29.8108 9.16543 29.2486 9.97084C28.6863 10.7763 27.8304 11.3289 26.865 11.51C22.4974 12.2507 18.5331 14.5138 15.6749 17.8983C12.8167 21.2828 11.2491 25.57 11.25 30C11.25 34.9728 13.2254 39.7419 16.7417 43.2582C20.2581 46.7745 25.0272 48.75 30 48.75V56.25C15.5025 56.25 3.75 44.5 3.75 30C3.75 17.1375 13.065 6.22497 25.6225 4.11497Z" fill="url(#paint0_linear_1_621)"/>
<path d="M42.23 10.745C42.5589 10.3782 42.9568 10.0797 43.4011 9.86666C43.8453 9.65364 44.3272 9.53026 44.8192 9.50356C45.3111 9.47686 45.8036 9.54737 46.2683 9.71106C46.733 9.87475 47.1609 10.1284 47.5275 10.4575C50.2749 12.9176 52.472 15.93 53.9751 19.2976C55.4781 22.6652 56.2534 26.3122 56.25 30C56.25 44.5 44.4975 56.25 30 56.25V48.75C33.7954 48.7501 37.5015 47.5983 40.6282 45.447C43.755 43.2957 46.1553 40.2461 47.5118 36.7014C48.8683 33.1567 49.1171 29.2838 48.2254 25.5946C47.3336 21.9055 45.3433 18.5738 42.5175 16.04C41.7773 15.376 41.3312 14.4451 41.2773 13.4521C41.2234 12.4591 41.5661 11.4854 42.23 10.745Z" fill="url(#paint1_linear_1_621)"/>
<defs>
<linearGradient id="paint0_linear_1_621" x1="3.75" y1="4.07422" x2="31.6529" y2="4.97367" gradientUnits="userSpaceOnUse">
<stop stop-color="#6142F6"/>
<stop offset="0.66289" stop-color="#9C2BDC"/>
<stop offset="1" stop-color="#FF2468"/>
</linearGradient>
<linearGradient id="paint1_linear_1_621" x1="43.125" y1="9.49805" x2="43.125" y2="56.25" gradientUnits="userSpaceOnUse">
<stop stop-color="#CEC4FC"/>
<stop offset="0.5" stop-color="#D7C1F8"/>
<stop offset="1" stop-color="#FFBBD0"/>
</linearGradient>
</defs>
</svg>
